<svg width="35" height="36" viewBox="0 0 35 36" fill="none" xmlns="http://www.w3.org/2000/svg">
<g clip-path="url(#clip0_3_187)">
<path d="M17.5 35.9265C17.5 35.9265 30.625 23.4884 30.625 14.0515C30.625 10.5705 29.2422 7.23215 26.7808 4.77074C24.3194 2.30932 20.981 0.926514 17.5 0.926514C14.019 0.926514 10.6806 2.30932 8.21922 4.77074C5.75781 7.23215 4.375 10.5705 4.375 14.0515C4.375 23.4884 17.5 35.9265 17.5 35.9265ZM17.5 20.614C15.7595 20.614 14.0903 19.9226 12.8596 18.6919C11.6289 17.4612 10.9375 15.792 10.9375 14.0515C10.9375 12.311 11.6289 10.6418 12.8596 9.41113C14.0903 8.18042 15.7595 7.48901 17.5 7.48901C19.2405 7.48901 20.9097 8.18042 22.1404 9.41113C23.3711 10.6418 24.0625 12.311 24.0625 14.0515C24.0625 15.792 23.3711 17.4612 22.1404 18.6919C20.9097 19.9226 19.2405 20.614 17.5 20.614Z" fill="#212529"/>
</g>
<defs>
<clipPath id="clip0_3_187">
<rect width="35" height="35" fill="white" transform="translate(0 0.926514)"/>
</clipPath>
</defs>
</svg>
